<?xml version="1.0" encoding="UTF-8" standalone="no"?>
<!-- Created with Inkscape (http://www.inkscape.org/) -->

<svg
   xmlns:dc="http://purl.org/dc/elements/1.1/"
   xmlns:cc="http://creativecommons.org/ns#"
   xmlns:rdf="http://www.w3.org/1999/02/22-rdf-syntax-ns#"
   xmlns:svg="http://www.w3.org/2000/svg"
   xmlns="http://www.w3.org/2000/svg"
   xmlns:sodipodi="http://sodipodi.sourceforge.net/DTD/sodipodi-0.dtd"
   xmlns:inkscape="http://www.inkscape.org/namespaces/inkscape"
   width="30.344435mm"
   height="36.219486mm"
   viewBox="0 0 107.51965 128.33676"
   id="svg2"
   version="1.1"
   inkscape:version="0.91 r13725"
   sodipodi:docname="icon.svg">
  <defs
     id="defs4" />
  <sodipodi:namedview
     id="base"
     pagecolor="#ffffff"
     bordercolor="#666666"
     borderopacity="1.0"
     inkscape:pageopacity="0.0"
     inkscape:pageshadow="2"
     inkscape:zoom="1.979899"
     inkscape:cx="29.964121"
     inkscape:cy="63.986204"
     inkscape:document-units="px"
     inkscape:current-layer="layer1"
     showgrid="false"
     fit-margin-top="0"
     fit-margin-left="0"
     fit-margin-right="0"
     fit-margin-bottom="0"
     inkscape:window-width="1600"
     inkscape:window-height="851"
     inkscape:window-x="0"
     inkscape:window-y="25"
     inkscape:window-maximized="1" />
  <metadata
     id="metadata7">
    <rdf:RDF>
      <cc:Work
         rdf:about="">
        <dc:format>image/svg+xml</dc:format>
        <dc:type
           rdf:resource="http://purl.org/dc/dcmitype/StillImage" />
        <dc:title></dc:title>
      </cc:Work>
    </rdf:RDF>
  </metadata>
  <g
     inkscape:label="Layer 1"
     inkscape:groupmode="layer"
     id="layer1"
     transform="translate(-253.99221,-249.51205)">
    <path
       style="fill:#008000"
       d="m 355.84464,298.45359 c -1.24641,0.50104 -4.66525,0.82724 -7.59742,0.72489 -7.50032,-0.2618 -21.61462,4.69081 -29.878,10.48397 -5.90651,4.14085 -24.63145,23.83722 -24.04603,25.29353 0.15954,0.39688 3.3321,-1.66456 7.05013,-4.58098 14.69481,-11.52655 32.41248,-18.80939 47.37008,-19.47143 8.97013,-0.39703 11.69483,0.357 12.54646,3.47206 1.01091,3.6977 -1.29185,4.70751 -9.78076,4.28907 -11.69893,-0.57666 -19.32988,0.79984 -31.28837,5.64395 -10.24511,4.15008 -20.27052,10.06744 -27.14243,16.02052 -3.26197,2.82583 -9.81286,10.9824 -9.07366,11.2977 0.26126,0.11144 2.93674,-2.07478 5.94552,-4.85824 4.75615,-4.40001 6.86273,-5.62366 16.13234,-9.3708 11.36104,-4.59264 18.26984,-5.4923 19.459,-2.53409 0.94201,2.34339 -1.14486,3.4441 -7.67655,4.04896 -8.75507,0.81074 -21.22164,6.10871 -27.95354,11.87951 -7.10201,6.08808 -12.75668,12.98139 -17.28523,21.07157 -3.4543,6.17104 -3.94372,6.66643 -5.38969,5.45545 -1.35211,-1.13236 -0.66451,-3.03676 4.58923,-12.71052 5.68005,-10.45872 6.22926,-12.10828 6.79361,-20.40463 1.21018,-17.79062 -3.27054,-40.23298 -10.70651,-53.62508 -2.25944,-4.06923 -6.01143,-9.64307 -8.33777,-12.38631 -2.32633,-2.74325 -4.65044,-6.41647 -5.16469,-8.1627 -0.77182,-2.62095 -0.54767,-3.33068 1.28448,-4.06719 3.16778,-1.2734 6.75805,1.33534 12.32855,8.95809 10.80488,14.78556 15.58484,37.14526 13.57966,63.52295 -0.36786,4.8391 -0.46169,8.88672 -0.2085,8.99472 0.2532,0.108 1.51893,-2.05659 2.81275,-4.81021 2.1144,-4.50004 2.22507,-6.31836 1.09387,-17.9728 -1.62635,-16.75595 -1.7892,-31.66023 -0.55996,-51.24814 1.26588,-20.17147 4.57541,-28.5866 8.38384,-21.31748 1.0322,1.97018 0.72444,6.71246 -1.25131,19.28101 -3.62412,23.05455 -4.63031,36.89169 -3.71178,51.04432 0.43161,6.65029 1.04,12.20246 1.35198,12.33816 1.44108,0.6268 2.2161,-4.44425 1.90382,-12.45681 -0.51569,-13.23132 0.29002,-21.86231 3.01272,-32.27334 3.16384,-12.09784 6.91934,-19.3085 14.53671,-27.91094 6.30085,-7.11565 10.83695,-9.94829 13.17372,-8.22653 2.30196,1.69609 0.61167,5.46375 -4.67353,10.4174 -10.95486,10.26762 -17.26792,21.30729 -20.98929,36.70407 -1.81124,7.49382 -3.60235,23.65367 -2.66598,24.05309 0.27344,0.11663 0.82304,-3.14039 1.22135,-7.23783 1.00189,-10.30679 5.68947,-22.02884 11.52081,-28.8096 3.56922,-4.15035 5.09381,-5.33948 6.22643,-4.85636 2.20421,0.9402 1.636,2.22715 -3.54595,8.03135 -2.56979,2.87836 -5.73182,7.19401 -7.02675,9.59032 -2.42394,4.48559 -6.76585,20.90242 -5.65372,21.37679 0.34321,0.1464 1.83359,-2.48511 3.31195,-5.84779 5.68373,-12.92822 24.15203,-40.30203 30.73127,-45.55005 2.39558,-1.91086 3.49518,-2.34119 4.68525,-1.83361 2.80075,1.19465 1.12752,4.28336 -8.67878,16.02071 -10.21361,12.22484 -25.59719,33.46471 -25.11199,34.67171 0.16277,0.40492 1.65474,-1.01123 3.31548,-3.147 8.78562,-11.29863 26.00252,-21.67631 38.73819,-23.34985 8.96948,-1.17865 12.10372,-0.83714 13.43295,1.46366 0.90777,1.57128 0.68299,2.14034 -1.13398,2.87073 z"
       id="path4147"
       inkscape:connector-curvature="0" />
  </g>
</svg>
